<svg width="82" height="82" viewBox="0 0 82 82" fill="none" xmlns="http://www.w3.org/2000/svg">
<g clip-path="url(#clip0_46_1126)">
<path d="M10.25 20.5C10.25 17.7815 11.3299 15.1744 13.2522 13.2522C15.1744 11.3299 17.7815 10.25 20.5 10.25H51.25C53.9685 10.25 56.5756 11.3299 58.4978 13.2522C60.4201 15.1744 61.5 17.7815 61.5 20.5V79.4375C61.4998 79.901 61.3738 80.3558 61.1355 80.7534C60.8973 81.151 60.5556 81.4765 60.147 81.6953C59.7384 81.9141 59.278 82.0179 58.8151 81.9958C58.3521 81.9736 57.9038 81.8263 57.5179 81.5695L35.875 67.1426L14.2321 81.5695C13.8462 81.8263 13.3979 81.9736 12.9349 81.9958C12.472 82.0179 12.0116 81.9141 11.603 81.6953C11.1944 81.4765 10.8527 81.151 10.6145 80.7534C10.3762 80.3558 10.2502 79.901 10.25 79.4375V20.5Z" fill="#EEECE9"/>
<path d="M21.873 5.125C22.7727 3.56684 24.0665 2.27293 25.6247 1.3733C27.1828 0.473682 28.9503 4.5707e-05 30.7495 0L61.4995 0C64.218 0 66.8251 1.07991 68.7474 3.00216C70.6696 4.9244 71.7495 7.53153 71.7495 10.25V69.1875C71.7493 69.651 71.6234 70.1058 71.3851 70.5034C71.1468 70.901 70.8052 71.2265 70.3965 71.4453C69.9879 71.6641 69.5276 71.7679 69.0646 71.7458C68.6016 71.7236 68.1533 71.5763 67.7674 71.3195L66.6245 70.561V10.25C66.6245 8.89077 66.0846 7.5872 65.1235 6.62608C64.1623 5.66495 62.8588 5.125 61.4995 5.125H21.873Z" fill="#EEECE9"/>
</g>
<defs>
<clipPath id="clip0_46_1126">
<rect width="82" height="82" fill="white"/>
</clipPath>
</defs>
</svg>
