<svg width="100" height="100" viewBox="0 0 100 100" fill="none" xmlns="http://www.w3.org/2000/svg">
<path d="M74.5 0H24.5C21.1848 0 18.0054 1.31696 15.6612 3.66117C13.317 6.00537 12 9.18479 12 12.5V87.5C12 90.8152 13.317 93.9946 15.6612 96.3388C18.0054 98.683 21.1848 100 24.5 100H74.5C77.8152 100 80.9946 98.683 83.3388 96.3388C85.683 93.9946 87 90.8152 87 87.5V12.5C87 9.18479 85.683 6.00537 83.3388 3.66117C80.9946 1.31696 77.8152 0 74.5 0ZM68.25 43.75C68.25 48.7228 66.2746 53.4919 62.7583 57.0083C59.2419 60.5246 54.4728 62.5 49.5 62.5C44.5272 62.5 39.7581 60.5246 36.2417 57.0083C32.7254 53.4919 30.75 48.7228 30.75 43.75C30.75 38.7772 32.7254 34.0081 36.2417 30.4917C39.7581 26.9754 44.5272 25 49.5 25C54.4728 25 59.2419 26.9754 62.7583 30.4917C66.2746 34.0081 68.25 38.7772 68.25 43.75ZM49.5 68.75C65.8937 68.75 75.4125 73.9125 80.75 79.7188V87.5C80.75 89.1576 80.0915 90.7473 78.9194 91.9194C77.7473 93.0915 76.1576 93.75 74.5 93.75H24.5C22.8424 93.75 21.2527 93.0915 20.0806 91.9194C18.9085 90.7473 18.25 89.1576 18.25 87.5V79.7188C23.5875 73.9062 33.1063 68.75 49.5 68.75Z" fill="#EEECE9"/>
</svg>
