<svg width="100" height="100" viewBox="0 0 100 100" fill="none" xmlns="http://www.w3.org/2000/svg">
<g clip-path="url(#clip0_46_1132)">
<path fill-rule="evenodd" clip-rule="evenodd" d="M62.5 78.125C62.5 78.9538 62.1708 79.7487 61.5847 80.3347C60.9987 80.9208 60.2038 81.25 59.375 81.25H9.375C8.5462 81.25 7.75134 80.9208 7.16529 80.3347C6.57924 79.7487 6.25 78.9538 6.25 78.125V21.875C6.25 21.0462 6.57924 20.2513 7.16529 19.6653C7.75134 19.0792 8.5462 18.75 9.375 18.75H59.375C60.2038 18.75 60.9987 19.0792 61.5847 19.6653C62.1708 20.2513 62.5 21.0462 62.5 21.875V34.375C62.5 35.2038 62.8292 35.9987 63.4153 36.5847C64.0013 37.1708 64.7962 37.5 65.625 37.5C66.4538 37.5 67.2487 37.1708 67.8347 36.5847C68.4208 35.9987 68.75 35.2038 68.75 34.375V21.875C68.75 19.3886 67.7623 17.004 66.0041 15.2459C64.246 13.4877 61.8614 12.5 59.375 12.5H9.375C6.8886 12.5 4.50403 13.4877 2.74587 15.2459C0.98772 17.004 0 19.3886 0 21.875L0 78.125C0 80.6114 0.98772 82.996 2.74587 84.7541C4.50403 86.5123 6.8886 87.5 9.375 87.5H59.375C61.8614 87.5 64.246 86.5123 66.0041 84.7541C67.7623 82.996 68.75 80.6114 68.75 78.125V65.625C68.75 64.7962 68.4208 64.0013 67.8347 63.4153C67.2487 62.8292 66.4538 62.5 65.625 62.5C64.7962 62.5 64.0013 62.8292 63.4153 63.4153C62.8292 64.0013 62.5 64.7962 62.5 65.625V78.125Z" fill="#EEECE9"/>
<path fill-rule="evenodd" clip-rule="evenodd" d="M99.0875 52.2125C99.3785 51.9223 99.6094 51.5774 99.767 51.1978C99.9245 50.8181 100.006 50.4111 100.006 50C100.006 49.589 99.9245 49.182 99.767 48.8023C99.6094 48.4227 99.3785 48.0778 99.0875 47.7875L80.3375 29.0375C79.7507 28.4508 78.9548 28.1211 78.125 28.1211C77.2952 28.1211 76.4993 28.4508 75.9125 29.0375C75.3257 29.6243 74.9961 30.4202 74.9961 31.25C74.9961 32.0799 75.3257 32.8758 75.9125 33.4625L89.3313 46.875H34.375C33.5462 46.875 32.7513 47.2043 32.1653 47.7903C31.5792 48.3764 31.25 49.1712 31.25 50C31.25 50.8288 31.5792 51.6237 32.1653 52.2098C32.7513 52.7958 33.5462 53.125 34.375 53.125H89.3313L75.9125 66.5375C75.3257 67.1243 74.9961 67.9202 74.9961 68.75C74.9961 69.5799 75.3257 70.3758 75.9125 70.9625C76.4993 71.5493 77.2952 71.879 78.125 71.879C78.9548 71.879 79.7507 71.5493 80.3375 70.9625L99.0875 52.2125Z" fill="#EEECE9"/>
</g>
<defs>
<clipPath id="clip0_46_1132">
<rect width="100" height="100" fill="white"/>
</clipPath>
</defs>
</svg>
